<?xml version="1.0" standalone="no"?>
<!DOCTYPE svg PUBLIC "-//W3C//DTD SVG 20010904//EN"
 "http://www.w3.org/TR/2001/REC-SVG-20010904/DTD/svg10.dtd">
<svg version="1.0" xmlns="http://www.w3.org/2000/svg"
 width="529.000000pt" height="529.000000pt" viewBox="0 0 529.000000 529.000000"
 preserveAspectRatio="xMidYMid meet">
<metadata>
Created by potrace 1.14, written by Peter Selinger 2001-2017
</metadata>
<g transform="translate(0.000000,529.000000) scale(0.100000,-0.100000)"
fill="#000000" stroke="none">
<path d="M326 4909 c-76 -12 -169 -63 -220 -120 -49 -55 -79 -124 -96 -221 -7
-44 -10 -635 -8 -1958 3 -1887 3 -1895 24 -1955 11 -33 33 -79 47 -103 38 -58
134 -127 215 -153 l67 -21 2235 -5 c2057 -5 2241 -4 2315 11 44 9 99 26 122
37 56 27 168 137 187 184 47 111 45 45 45 2045 1 1856 0 1886 -19 1965 -12 46
-30 90 -43 105 -13 14 -35 44 -50 67 -18 29 -42 49 -81 67 -31 15 -59 27 -63
27 -5 0 -13 5 -19 10 -7 5 -23 13 -35 17 -34 10 -4564 11 -4623 1z m4334
-2251 l0 -1627 -21 -12 c-15 -8 -324 -9 -1147 -5 -620 3 -1526 5 -2014 6
l-888 0 0 1628 c0 896 2 1631 5 1634 3 3 919 5 2035 4 l2030 -1 0 -1627z"/>
<path d="M1153 3032 c-45 -19 -119 -90 -134 -130 -13 -35 -11 -128 5 -165 14
-33 82 -107 130 -142 16 -11 50 -38 77 -60 27 -22 65 -53 84 -68 35 -29 35
-29 18 -57 -9 -16 -26 -33 -38 -38 -40 -19 -160 -114 -203 -162 -70 -79 -115
-204 -82 -225 6 -3 10 -14 10 -23 0 -27 80 -113 124 -133 23 -10 55 -19 72
-19 50 0 131 30 171 65 21 17 60 46 87 64 26 19 80 61 120 96 39 34 86 69 103
79 31 16 35 15 70 -3 21 -10 53 -35 71 -55 18 -20 51 -48 73 -62 22 -14 79
-54 126 -90 96 -72 168 -100 230 -88 90 17 125 47 159 135 27 72 28 119 3 164
-11 22 -28 52 -36 68 -8 15 -36 43 -61 62 -26 19 -67 49 -92 67 -24 18 -66 54
-93 79 l-49 45 54 41 c29 23 68 55 86 72 18 17 37 31 42 31 15 0 128 117 146
152 24 44 24 142 1 185 -53 100 -159 151 -254 124 -40 -12 -134 -72 -190 -123
-24 -21 -46 -38 -51 -38 -4 0 -35 -25 -67 -55 -33 -30 -64 -55 -68 -55 -5 0
-22 -9 -37 -20 l-28 -20 -61 37 c-33 21 -65 47 -71 58 -6 11 -32 32 -58 47
-26 15 -62 41 -80 57 -18 17 -37 31 -42 31 -5 0 -24 13 -42 29 -69 60 -146 75
-225 43z"/>
<path d="M2975 3040 c-3 -5 -15 -10 -26 -10 -26 0 -109 -77 -125 -117 -8 -18
-14 -56 -14 -86 0 -73 52 -159 135 -222 33 -25 93 -71 133 -101 46 -35 72 -62
70 -72 -3 -16 -127 -118 -216 -178 -29 -19 -56 -43 -59 -52 -4 -9 -19 -35 -35
-56 -74 -102 5 -296 133 -326 90 -22 167 0 239 69 19 18 60 52 90 74 30 23 57
45 58 50 2 4 8 7 14 7 6 0 31 17 57 38 25 21 60 48 78 60 l31 22 55 -50 c30
-27 75 -65 100 -82 24 -18 70 -53 100 -78 161 -131 270 -151 369 -70 34 29 46
46 75 120 39 96 -43 234 -197 334 -30 19 -74 52 -98 73 l-43 38 67 55 c37 30
87 75 113 98 25 24 62 55 83 69 39 26 79 102 84 161 2 18 -7 63 -19 100 -23
67 -23 67 -90 100 -117 57 -196 41 -329 -67 -31 -25 -85 -67 -120 -93 -35 -27
-81 -64 -102 -83 -22 -20 -45 -33 -53 -30 -8 3 -18 5 -22 5 -5 0 -20 10 -34
23 -14 12 -37 30 -49 39 -13 10 -61 48 -108 85 -106 85 -185 137 -229 152 -42
14 -108 14 -116 1z"/>
</g>
</svg>
